<svg width="160" height="160" viewBox="0 0 160 160" fill="none" xmlns="http://www.w3.org/2000/svg">
<rect width="160" height="160" rx="5" fill="#BAF7E0"/>
<path d="M45.3831 60.2795C47.1098 55.59 50.4394 50 56.4957 50C69.745 50 79.8192 51.4316 88.1993 54.5054C94.8666 56.9508 100.067 60.2936 104.983 63.9085C105.75 62.7471 106.624 61.7196 107.601 60.8347C115.532 53.6518 129.801 56.5159 130.405 56.6413L132.619 57.1016L132.86 59.3507C132.92 59.9043 134.128 71.966 128.179 79.4957C134.129 87.0249 132.92 99.087 132.86 99.6408L132.619 101.89L130.405 102.35C129.801 102.476 115.533 105.34 107.601 98.157C106.63 97.2771 105.76 96.2564 104.996 95.1031C93.5236 103.571 82.6199 108.992 56.4961 108.992C50.4396 108.992 47.11 103.401 45.3835 98.712C43.4981 93.5907 42.4596 86.7664 42.4596 79.4959C42.4596 72.2254 43.4977 65.4008 45.3831 60.2795Z" fill="#7985EC"/>
<path d="M56.4957 50C50.4394 50 47.1098 55.59 45.3831 60.2795C43.4977 65.4008 42.4596 72.2254 42.4596 79.4959C42.4596 86.7664 43.4981 93.5907 45.3835 98.712C47.11 103.401 50.4396 108.992 56.4961 108.992C82.6199 108.992 93.5236 103.571 104.996 95.1031C105.76 96.2564 106.63 97.2771 107.601 98.157C115.533 105.34 129.801 102.476 130.405 102.35L132.619 101.89L132.86 99.6408C132.92 99.087 134.129 87.0249 128.179 79.4957H92.5255L88.1993 54.5054C79.8192 51.4316 69.745 50 56.4957 50Z" fill="#6774DF"/>
<path d="M104.997 95.1029C93.524 103.571 82.6204 108.991 56.4966 108.991C50.4401 108.991 47.1105 103.401 45.384 98.7118C43.4986 93.5905 42.4601 86.7662 42.4601 79.4957C42.4601 72.2252 43.4986 65.4008 45.384 60.2795C47.1107 55.59 50.4403 50 56.4966 50C69.7459 50 79.8201 51.4316 88.2002 54.5054C94.8675 56.9508 100.067 60.2936 104.984 63.9085L121.958 79.4959L104.997 95.1029Z" fill="#5B64B1"/>
<path d="M56.4966 108.991C82.6204 108.991 93.524 103.571 104.997 95.1028L121.958 79.4958L42.4601 79.4956C42.4601 86.7661 43.4986 93.5905 45.384 98.7118C47.1105 103.401 50.4401 108.991 56.4966 108.991Z" fill="#4F58A5"/>
<path d="M56.4974 105.885C41.9226 105.885 30.1074 94.0703 30.1074 79.4955C30.1074 64.9207 41.9226 53.1055 56.4974 53.1055C71.0722 53.1055 82.8874 64.9207 82.8874 79.4955C82.8874 94.0703 71.0722 105.885 56.4974 105.885Z" fill="#FF9900"/>
<path d="M82.2642 79.4958C82.2642 94.0706 70.4488 105.886 55.874 105.886C41.2993 105.886 29.4838 94.0706 29.4838 79.4956L82.2642 79.4956L82.2642 79.4958Z" fill="#FF5D00"/>
<path d="M56.497 108.991C72.7611 108.991 85.9929 95.7598 85.9929 79.4957C85.9929 63.2315 72.7613 50 56.497 50C40.2331 50 27.0013 63.2315 27.0013 79.4957C27.0013 95.7598 40.2333 108.991 56.497 108.991ZM56.497 56.2111C69.3364 56.2111 79.7819 66.6567 79.7819 79.4959C79.7819 92.3351 69.3364 102.781 56.497 102.781C43.6578 102.781 33.2123 92.3349 33.2123 79.4959C33.2123 66.6569 43.658 56.2111 56.497 56.2111Z" fill="#FFE1B4"/>
<path d="M56.4971 87.6674C51.9838 87.6674 48.325 84.0086 48.325 79.4952C48.325 74.9819 51.9838 71.3231 56.4971 71.3231C61.0105 71.3231 64.6693 74.9819 64.6693 79.4952C64.6693 84.0086 61.0105 87.6674 56.4971 87.6674Z" fill="#FFE1B4"/>
<path d="M64.6682 79.4956C64.6682 84.0089 61.0095 87.6677 56.496 87.6677C51.9828 87.6677 48.3239 84.0091 48.3239 79.4956L64.6682 79.4956Z" fill="#FFCB7D"/>
<path d="M26.9996 79.4956L33.2106 79.4956C33.2106 92.3348 43.6561 102.78 56.4953 102.78C69.3345 102.78 79.7798 92.3346 79.7798 79.4956L85.9907 79.4956C85.9907 95.7595 72.7592 108.991 56.4951 108.991C40.2314 108.991 26.9996 95.7593 26.9996 79.4956Z" fill="#FFCB7D"/>
</svg>
