<svg width="160" height="160" viewBox="0 0 160 160" fill="none" xmlns="http://www.w3.org/2000/svg">
<rect width="160" height="160" rx="5" fill="#F7CFC6"/>
<g clip-path="url(#clip0)">
<path d="M120.433 61.2604L125.933 52.487L120.278 43.1274C118.398 40.0151 115.533 37.6186 112.138 36.3184L101.268 32.1555H96.7472L91.3384 38.6711L80.0004 42.4159L68.6623 38.6711L63.2533 32.1555H58.7326L47.8627 36.3182C44.4676 37.6184 41.6027 40.0151 39.7222 43.1272L34.0677 52.4868L39.5674 61.2602L47.867 67.659L51.6365 65.6495C51.5386 65.951 42.9738 92.3409 49.2898 122.718L59.9945 126.359L70.6992 122.718L73.7916 113.132C74.2685 111.654 75.6443 110.652 77.1974 110.652H82.8039C84.357 110.652 85.7328 111.654 86.2097 113.132L89.3021 122.718L100.007 126.359L110.711 122.718C117.028 92.3407 108.463 65.9512 108.365 65.6495L112.134 67.659L120.433 61.2604Z" fill="#FFE177"/>
<path d="M70.6989 122.719L69.3944 126.765C68.7726 128.694 66.977 130 64.9507 130H54.6735C52.5224 130 50.6522 128.531 50.1362 126.445C49.8284 125.197 49.5476 123.955 49.2896 122.719L70.6989 122.719Z" fill="#FFD363"/>
<path d="M47.8666 67.6598L44.4465 69.4844C42.5596 70.4912 40.2316 70.0875 38.7941 68.5064L32.4822 61.5662C31.0926 60.0371 30.8719 57.7779 31.9414 56.0094L34.0676 52.4873L47.8666 67.6598Z" fill="#FFD363"/>
<path d="M110.711 122.719C110.567 123.409 110.415 124.1 110.257 124.795C110.13 125.344 109.999 125.893 109.864 126.444C109.348 128.531 107.478 130 105.327 130H95.0498C93.0234 130 91.2281 128.694 90.606 126.765L89.3015 122.719H110.711V122.719Z" fill="#FFD363"/>
<path d="M127.518 61.5663L121.206 68.5065C119.769 70.0876 117.441 70.4913 115.554 69.4844L112.134 67.6598L125.933 52.4875L128.059 56.0096C129.129 57.7776 128.908 60.037 127.518 61.5663Z" fill="#FFD363"/>
<path d="M95.9328 30.1128C95.1359 29.8077 94.2318 30.1413 93.8367 30.8976C91.2306 35.8849 86.0078 39.296 80.0004 39.296C73.9949 39.296 68.7701 35.8849 66.164 30.8976C65.7689 30.1415 64.8646 29.8079 64.0679 30.113L58.7328 32.156C62.0969 40.6044 70.3517 46.5771 80.0006 46.5771C89.6494 46.5771 97.9045 40.6042 101.268 32.156L95.9328 30.1128Z" fill="#FFD363"/>
<path d="M67.4145 70.5012C70.8041 70.5012 73.5518 67.7534 73.5518 64.3639C73.5518 60.9743 70.8041 58.2266 67.4145 58.2266C64.025 58.2266 61.2772 60.9743 61.2772 64.3639C61.2772 67.7534 64.025 70.5012 67.4145 70.5012Z" fill="#D98F2D"/>
<path d="M92.5852 70.5012C95.9747 70.5012 98.7225 67.7534 98.7225 64.3639C98.7225 60.9743 95.9747 58.2266 92.5852 58.2266C89.1956 58.2266 86.4479 60.9743 86.4479 64.3639C86.4479 67.7534 89.1956 70.5012 92.5852 70.5012Z" fill="#D98F2D"/>
<path d="M80.0003 88.2878C89.1347 88.2878 96.5396 81.7909 96.5396 73.7766C96.5396 65.7624 89.1347 59.2655 80.0003 59.2655C70.8659 59.2655 63.4611 65.7624 63.4611 73.7766C63.4611 81.7909 70.8659 88.2878 80.0003 88.2878Z" fill="#FFB641"/>
<path d="M71.2877 74.2528C70.4541 74.2528 69.7787 73.5772 69.7787 72.7438V71.3952C69.7787 70.5618 70.4541 69.8862 71.2877 69.8862C72.1213 69.8862 72.7967 70.5618 72.7967 71.3952V72.7438C72.7967 73.5771 72.1213 74.2528 71.2877 74.2528Z" fill="#38484A"/>
<path d="M88.7109 74.2528C87.8773 74.2528 87.2019 73.5772 87.2019 72.7438V71.3952C87.2019 70.5618 87.8773 69.8862 88.7109 69.8862C89.5445 69.8862 90.2199 70.5618 90.2199 71.3952V72.7438C90.2201 73.5771 89.5445 74.2528 88.7109 74.2528Z" fill="#38484A"/>
<path d="M79.9989 80.0518C78.1314 80.0518 76.3779 79.2711 75.188 77.91C74.6396 77.2825 74.7036 76.3291 75.3312 75.7807C75.9587 75.2323 76.9118 75.2961 77.4605 75.9237C78.0767 76.629 79.0021 77.0334 79.9988 77.0334C80.9954 77.0334 81.9206 76.629 82.5372 75.9237C83.0857 75.2961 84.039 75.2321 84.6663 75.7807C85.2939 76.3291 85.3581 77.2825 84.8093 77.91C83.62 79.2711 81.8665 80.0518 79.9989 80.0518Z" fill="#38484A"/>
<path d="M82.2182 72.2162C82.2182 73.1644 81.2246 73.9334 79.999 73.9334C78.7735 73.9334 77.7799 73.1646 77.7799 72.2162C77.7799 71.2679 82.2182 71.2679 82.2182 72.2162Z" fill="#38484A"/>
</g>
<defs>
<clipPath id="clip0">
<rect width="100" height="100" fill="white" transform="translate(30 30)"/>
</clipPath>
</defs>
</svg>
