<svg width="160" height="160" viewBox="0 0 160 160" fill="none" xmlns="http://www.w3.org/2000/svg">
<rect width="160" height="160" rx="5" fill="#F7CFC6"/>
<path d="M125.942 80.9435L82.8728 75.536L34 80.8896V93.3413L53.7646 97.6536L34 104.122V117.598H125.996V104.122L108.747 97.6536L125.996 93.3413C125.996 83.0969 126.022 81.7446 125.942 80.9435Z" fill="#99665C"/>
<path d="M125.996 104.122L108.746 97.6536L125.996 93.3413C125.996 83.0969 126.022 81.7446 125.942 80.9435L82.8726 75.536L80.1504 75.8364V117.598H125.996V104.122Z" fill="#804A40"/>
<path d="M101.739 47.1991L34 80.889H85.568C88.5327 80.889 90.9584 83.3147 90.9584 86.2794V86.3333C90.9584 89.298 93.384 91.7237 96.3488 91.7237C99.3135 91.7237 101.739 89.298 101.739 86.3333C101.739 83.3684 104.165 80.9429 107.13 80.9429H125.942C125.282 66.0527 114.911 53.9223 101.739 47.1991V47.1991Z" fill="#804A40"/>
<path d="M80.1504 80.889H85.5678C88.5325 80.889 90.9581 83.3147 90.9581 86.2794V86.3333C90.9581 89.298 93.3838 91.7237 96.3485 91.7237C99.3132 91.7237 101.739 89.298 101.739 86.3333C101.739 83.3684 104.165 80.9429 107.129 80.9429H125.942C125.282 66.0525 114.911 53.9222 101.739 47.1991L80.1504 57.9933V80.889Z" fill="#663328"/>
<path d="M125.996 93.3407V104.121H74.7872C71.8225 104.121 69.3968 106.547 69.3968 109.512C69.3968 112.477 66.9712 114.902 64.0065 114.902C61.0418 114.902 58.6161 112.477 58.6161 109.512C58.6161 106.547 56.1904 104.121 53.2257 104.121H34V93.3407H125.996Z" fill="#804A40"/>
<path d="M99.0444 60.9986H93.6541C93.6541 52.0603 84.4473 47.2804 84.3578 47.2332L86.7739 42.4165C87.274 42.6664 99.0444 48.6938 99.0444 60.9986Z" fill="#FF80AA"/>
<path d="M96.3489 74.4749C91.8903 74.4749 88.2633 70.8479 88.2633 66.3893C88.2633 61.9307 91.8903 58.3037 96.3489 58.3037C100.807 58.3037 104.434 61.9307 104.434 66.3893C104.434 70.8479 100.807 74.4749 96.3489 74.4749Z" fill="#FF4D88"/>
<path d="M80.1504 93.3413H125.996V104.122H80.1504V93.3413Z" fill="#663328"/>
<path d="M82.8724 60.9989H77.482C77.482 52.0506 68.2643 47.3071 68.2108 47.2534L70.5822 42.4019C70.9595 42.5634 76.6197 45.4744 80.1233 51.2962C81.3094 53.2367 82.2256 55.5544 82.657 58.1957C82.7105 58.4111 82.7646 58.6271 82.7646 58.7886C82.8185 59.5972 82.8724 60.352 82.8724 60.9989V60.9989Z" fill="#FFB3CC"/>
<path d="M80.1781 74.4749C75.7195 74.4749 72.0925 70.8479 72.0925 66.3893C72.0925 61.9307 75.7195 58.3037 80.1781 58.3037C84.6366 58.3037 88.2636 61.9307 88.2636 66.3893C88.2636 70.8479 84.6366 74.4749 80.1781 74.4749Z" fill="#FF80AA"/>
<path d="M80.1504 74.4722C80.1596 74.4722 80.1682 74.4749 80.1774 74.4749C84.6359 74.4749 88.2629 70.8479 88.2629 66.3893C88.2629 61.9307 84.6359 58.3037 80.1774 58.3037C80.1682 58.3037 80.1596 58.3064 80.1504 58.3064V74.4722Z" fill="#FF4D88"/>
</svg>
