<svg width="160" height="160" viewBox="0 0 160 160" fill="none" xmlns="http://www.w3.org/2000/svg">
<rect width="160" height="160" rx="5" fill="#F7E9C6"/>
<path d="M53 59.6027H81.0742C82.155 59.6027 83.1916 60.032 83.9559 60.7963C84.7201 61.5606 85.1495 62.5971 85.1495 63.678V132.052H48.9247V63.678C48.9247 62.5971 49.354 61.5606 50.1183 60.7963C50.8826 60.032 51.9191 59.6027 53 59.6027V59.6027Z" fill="#70F3EE"/>
<path d="M70.6578 86.771H85.1477V115.751H70.6578V86.771Z" fill="#4AE6DF"/>
<path d="M59.7912 48.7351H74.2812V59.6026H59.7912V48.7351Z" fill="#ECECEC"/>
<path d="M81.5253 27H68.3938C66.5924 27 64.8648 27.7156 63.591 28.9894C62.3172 30.2632 61.6016 31.9908 61.6016 33.7922V37.8674H72.4691V34.245H88.7702C88.7702 32.3235 88.0069 30.4807 86.6482 29.122C85.2895 27.7633 83.4468 27 81.5253 27V27Z" fill="#ECECEC"/>
<path d="M63.4141 37.8676H70.659V48.735H63.4141V37.8676Z" fill="#B9B9B9"/>
<path d="M56.1686 113.939H34.4337L29 74.092H61.6023L56.1686 113.939Z" fill="#FD9226"/>
<path d="M45.3029 97.4485C47.972 97.4485 50.1357 95.2848 50.1357 92.6157C50.1357 89.9466 47.972 87.7828 45.3029 87.7828C42.6338 87.7828 40.47 89.9466 40.47 92.6157C40.47 95.2848 42.6338 97.4485 45.3029 97.4485Z" fill="#FBB540"/>
<path d="M45.3027 86.2934C44.8223 86.2934 44.3616 86.1025 44.0219 85.7629C43.6823 85.4232 43.4914 84.9625 43.4914 84.4821V82.1583C43.4914 81.6779 43.6823 81.2172 44.0219 80.8775C44.3616 80.5379 44.8223 80.347 45.3027 80.347C45.783 80.347 46.2437 80.5379 46.5834 80.8775C46.9231 81.2172 47.1139 81.6779 47.1139 82.1583V84.4821C47.1139 84.9625 46.9231 85.4232 46.5834 85.7629C46.2437 86.1025 45.783 86.2934 45.3027 86.2934Z" fill="#FBB540"/>
<path d="M38.2556 90.3607C37.9381 90.3607 37.6263 90.2768 37.3518 90.1175L35.3392 88.9558C35.1316 88.8378 34.9493 88.6798 34.803 88.491C34.6566 88.3023 34.5491 88.0864 34.4865 87.8559C34.4239 87.6253 34.4075 87.3847 34.4383 87.1478C34.4691 86.911 34.5465 86.6825 34.6659 86.4757C34.7853 86.2688 34.9445 86.0876 35.1342 85.9425C35.324 85.7974 35.5406 85.6913 35.7715 85.6302C36.0024 85.5692 36.2432 85.5544 36.4798 85.5868C36.7165 85.6191 36.9444 85.698 37.1505 85.8188L39.163 86.9807C39.5085 87.1801 39.7785 87.488 39.9312 87.8566C40.0838 88.2251 40.1104 88.6338 40.007 89.0191C39.9036 89.4044 39.6758 89.7447 39.3591 89.9873C39.0424 90.2299 38.6545 90.3612 38.2556 90.3607V90.3607Z" fill="#FBB540"/>
<path d="M36.2442 99.6563C35.8454 99.6567 35.4576 99.5254 35.141 99.2828C34.8243 99.0402 34.5967 98.6999 34.4932 98.3147C34.3898 97.9295 34.4164 97.5209 34.569 97.1524C34.7215 96.7838 34.9914 96.476 35.3368 96.2765L37.3493 95.1146C37.5554 94.9922 37.7838 94.9119 38.0212 94.8784C38.2586 94.8449 38.5003 94.8588 38.7322 94.9194C38.9642 94.98 39.1818 95.0861 39.3724 95.2314C39.5631 95.3768 39.723 95.5585 39.8428 95.7661C39.9627 95.9738 40.0402 96.2031 40.0708 96.4409C40.1013 96.6787 40.0844 96.9201 40.0209 97.1513C39.9575 97.3825 39.8487 97.5988 39.701 97.7876C39.5534 97.9765 39.3696 98.1341 39.1606 98.2514L37.1481 99.4133C36.8734 99.5725 36.5617 99.6563 36.2442 99.6563V99.6563Z" fill="#FBB540"/>
<path d="M45.3027 104.884C44.8223 104.884 44.3616 104.693 44.0219 104.354C43.6823 104.014 43.4914 103.553 43.4914 103.073V100.749C43.4914 100.269 43.6823 99.8082 44.0219 99.4685C44.3616 99.1288 44.8223 98.938 45.3027 98.938C45.783 98.938 46.2437 99.1288 46.5834 99.4685C46.9231 99.8082 47.1139 100.269 47.1139 100.749V103.073C47.1139 103.553 46.9231 104.014 46.5834 104.354C46.2437 104.693 45.783 104.884 45.3027 104.884Z" fill="#FBB540"/>
<path d="M54.3551 99.6563C54.0377 99.6564 53.7259 99.5725 53.4513 99.4133L51.4388 98.2514C51.2297 98.1341 51.046 97.9765 50.8983 97.7876C50.7506 97.5988 50.6419 97.3825 50.5784 97.1513C50.515 96.9201 50.498 96.6787 50.5286 96.4409C50.5592 96.2031 50.6366 95.9738 50.7565 95.7661C50.8764 95.5585 51.0363 95.3768 51.227 95.2314C51.4176 95.0861 51.6352 94.98 51.8672 94.9194C52.0991 94.8588 52.3408 94.8449 52.5782 94.8784C52.8156 94.9119 53.0439 94.9922 53.25 95.1146L55.2626 96.2765C55.608 96.476 55.8779 96.7838 56.0304 97.1524C56.183 97.5209 56.2096 97.9295 56.1061 98.3147C56.0027 98.6999 55.775 99.0402 55.4584 99.2828C55.1418 99.5254 54.754 99.6567 54.3551 99.6563V99.6563Z" fill="#FBB540"/>
<path d="M52.3453 90.3607C51.9464 90.3612 51.5584 90.2299 51.2417 89.9873C50.925 89.7447 50.6973 89.4044 50.5939 89.0191C50.4904 88.6338 50.5171 88.2251 50.6697 87.8566C50.8223 87.488 51.0923 87.1801 51.4379 86.9807L53.4504 85.8188C53.6564 85.698 53.8844 85.6191 54.121 85.5868C54.3577 85.5544 54.5984 85.5692 54.8294 85.6302C55.0603 85.6913 55.2769 85.7974 55.4666 85.9425C55.6564 86.0876 55.8155 86.2688 55.935 86.4757C56.0544 86.6825 56.1317 86.911 56.1625 87.1478C56.1933 87.3847 56.1769 87.6253 56.1144 87.8559C56.0518 88.0864 55.9442 88.3023 55.7979 88.491C55.6515 88.6798 55.4693 88.8378 55.2616 88.9558L53.2491 90.1175C52.9745 90.2768 52.6627 90.3607 52.3453 90.3607V90.3607Z" fill="#FBB540"/>
<path d="M34.4333 121.184H56.1681V132.052H34.4333V121.184Z" fill="#428DC5"/>
<path d="M41.679 121.184H48.9239V124.807C48.9239 125.287 48.7331 125.748 48.3934 126.087C48.0538 126.427 47.5931 126.618 47.1127 126.618H43.4902C43.0099 126.618 42.5492 126.427 42.2095 126.087C41.8698 125.748 41.679 125.287 41.679 124.807V121.184Z" fill="#36759E"/>
<path d="M34.4333 113.939H56.1681V121.184H34.4333V113.939Z" fill="#4799CF"/>
<path d="M29 66.8473H61.6023V74.0923H29V66.8473Z" fill="#E08122"/>
<path d="M119.562 88.5826H121.373C122.521 86.2857 123.206 83.785 123.388 81.2234C123.57 78.6619 123.246 76.0895 122.434 73.6532L121.373 70.4702L116.881 72.7162C112.688 74.8125 108.065 75.9039 103.377 75.9039H101.854C100.611 75.9039 99.3811 76.1486 98.2332 76.624C97.0854 77.0995 96.0424 77.7963 95.1639 78.6749C94.2853 79.5534 93.5885 80.5964 93.113 81.7442C92.6376 82.8921 92.3929 84.1223 92.3929 85.3647V88.5826H93.0848C90.4995 88.5826 88.02 89.6097 86.1919 91.4378C84.3638 93.2659 83.3367 95.7454 83.3367 98.3307V103.073H119.562C121.483 103.073 123.326 102.309 124.685 100.951C126.043 99.5919 126.807 97.7491 126.807 95.8276C126.807 93.9061 126.043 92.0633 124.685 90.7046C123.326 89.3459 121.483 88.5826 119.562 88.5826V88.5826Z" fill="#F7FFFC"/>
<path d="M86.1919 91.4372C88.02 89.6091 89.8076 88.5821 92.3929 88.5821C99.1246 86.7474 112.249 82.4812 121.373 88.5821C122.731 89.9408 126.127 89.4878 126.807 95.8271C126.807 97.7485 126.043 99.5913 124.685 100.95C123.326 102.309 121.483 103.072 119.562 103.072H83.3367V98.3302C83.3367 95.7448 84.3638 93.2654 86.1919 91.4372Z" fill="#ECF9F4"/>
<path d="M110.506 132.052H99.6384C93.8739 132.052 88.3456 129.762 84.2695 125.686C80.1934 121.61 77.9035 116.082 77.9035 110.317V106.695H132.241V110.317C132.241 116.082 129.951 121.61 125.875 125.686C121.799 129.762 116.27 132.052 110.506 132.052Z" fill="#E7E1F3"/>
<path d="M79.7159 99.449H130.431V106.694H79.7159V99.449Z" fill="#E7E1F3"/>
<path d="M79.7159 103.073H130.431V106.695H79.7159V103.073Z" fill="#D5CEE4"/>
<path d="M63.4141 37.8676H70.659V41.49H63.4141V37.8676Z" fill="#A8A8A8"/>
</svg>
