<svg width="160" height="160" viewBox="0 0 160 160" fill="none" xmlns="http://www.w3.org/2000/svg">
<rect width="160" height="160" rx="5" fill="#F8E4D2"/>
<path d="M101 126.571H75.8L72.2 132H29V94H101V126.571Z" fill="#548AFF"/>
<path d="M85 38.875L77.7273 28H52.2727L45 38.875V86H85V38.875Z" fill="#FFCC4D"/>
<path d="M63 45H66V86H63V45Z" fill="#FFC431"/>
<path d="M52.2727 28L65 44.2L55.9091 55L45 38.8L52.2727 28Z" fill="#FFE28F"/>
<path d="M77.7273 28L65 44.2L74.0909 55L85 38.8L77.7273 28Z" fill="#FFE28F"/>
<path d="M52 28L65 45L78 28H52Z" fill="#FFC431"/>
<path d="M101 39V94H29V39H45.2V44.3487C45.2 45.0133 45.218 45.6756 45.2585 46.3333C45.3257 47.5621 45.4594 48.7862 45.659 50C45.9009 51.4855 46.2391 52.9531 46.6715 54.3931C47.0213 55.564 47.4337 56.7146 47.9067 57.8398C48.4039 59.0296 48.9673 60.1896 49.5942 61.314C49.907 61.8777 50.2332 62.43 50.5775 62.9731C50.8835 63.4567 51.203 63.9356 51.5337 64.4031C52.3322 65.5374 53.1978 66.6211 54.1257 67.6481C54.9383 68.549 55.7983 69.4043 56.702 70.2102C57.4557 70.8839 58.2403 71.5241 59.0555 72.1306C60.0272 72.8541 61.0367 73.5235 62.0795 74.1358C62.4463 74.3536 62.822 74.5644 63.2 74.7661C63.7872 75.0846 64.388 75.3825 65 75.6667C65.612 75.3825 66.2127 75.0846 66.8 74.7661C67.178 74.5644 67.5537 74.3536 67.9205 74.1358C68.9633 73.5235 69.9728 72.8541 70.9445 72.1306C71.759 71.5256 72.5435 70.8855 73.298 70.2102C74.2017 69.4043 75.0617 68.549 75.8743 67.6481C77.6165 65.7192 79.1368 63.5941 80.4057 61.314C81.0327 60.1896 81.5961 59.0296 82.0932 57.8398C82.5663 56.7147 82.9787 55.564 83.3285 54.3931C83.7609 52.9531 84.0991 51.4855 84.341 50C84.5406 48.7862 84.6743 47.5621 84.7415 46.3333C84.782 45.6756 84.8 45.0133 84.8 44.3487V39H101Z" fill="#FFA100"/>
<path d="M90.375 39V44.1429C90.375 44.8411 90.3569 45.5371 90.3206 46.2308H84.8786C84.8109 47.4424 84.6763 48.6493 84.4753 49.8462H89.9808C89.6815 52.004 89.211 54.1347 88.5738 56.2183L83.4558 54.1778C83.1035 55.3324 82.6883 56.4669 82.2119 57.5763L87.3594 59.628C86.735 61.1691 86.017 62.6707 85.2094 64.1247L80.5127 61.0019C79.9162 62.051 79.2643 63.0677 78.5597 64.0479L83.3176 67.2113C83.2949 67.2452 83.2722 67.2791 83.2496 67.3107C82.2833 68.732 81.2293 70.0919 80.0936 71.3826L75.9498 67.2475C75.1316 68.1358 74.2656 68.9791 73.3556 69.7737L77.5924 73.9992C76.6544 74.8962 75.6756 75.7451 74.6561 76.5457L70.9858 71.6673C70.0073 72.3806 68.9908 73.0407 67.9408 73.6444L71.7198 78.6676C70.1483 79.6953 68.5088 80.6155 66.8125 81.422V74.2658C66.2212 74.5799 65.6163 74.8737 65 75.1538C64.3837 74.8737 63.7788 74.5799 63.1875 74.2658V81.422C61.4912 80.6155 59.8517 79.6953 58.2802 78.6676L62.0592 73.6444C61.0092 73.0407 59.9927 72.3806 59.0142 71.6673L55.3439 76.5457C54.3266 75.7436 53.3479 74.8947 52.4076 73.9992L56.6444 69.7737C55.7344 68.9791 54.8684 68.1358 54.0502 67.2475L49.9064 71.3826C48.7707 70.0919 47.7167 68.732 46.7504 67.3107C46.7277 67.2791 46.7051 67.2452 46.6824 67.2113L51.4403 64.0479C51.1072 63.5869 50.7855 63.1146 50.4774 62.6378C50.1307 62.1023 49.8022 61.5578 49.4873 61.0019L44.7906 64.1247C43.983 62.6707 43.265 61.1691 42.6406 59.628L47.788 57.5763C47.3117 56.4669 46.8965 55.3324 46.5442 54.1778L41.4262 56.2183C40.789 54.1347 40.3185 52.004 40.0192 49.8462H45.5247C45.3237 48.6493 45.1891 47.4424 45.1214 46.2308H39.6794C39.6431 45.5371 39.625 44.8411 39.625 44.1429V39H36V44.1429C36.0009 53.1249 38.6999 61.9008 43.749 69.3385C48.7981 76.7762 55.9656 82.5346 64.3271 85.8712C64.7592 86.0429 65.2408 86.0429 65.6729 85.8712C74.0344 82.5346 81.2019 76.7762 86.251 69.3385C91.3 61.9008 93.9991 53.1249 94 44.1429V39H90.375Z" fill="#F78E00"/>
<path d="M58 121C55.6131 121 53.3239 120.005 51.636 118.234C49.9482 116.463 49 114.06 49 111.556V104H58V121Z" fill="#4976F2"/>
<path d="M101 103.048H75.8V94H72.2V103.048H68.6V94H65V103.048H48.8V94H45.2V103.048H41.6V94H38V103.048H29V106.667H56V132H59.6V106.667H101V103.048Z" fill="#4976F2"/>
<path d="M73 123V112.091H83.8387L91.0645 103L118.161 115.727H123.581C125.018 115.727 126.396 116.302 127.413 117.325C128.429 118.348 129 119.735 129 121.182V123H73Z" fill="#FFC431"/>
<path d="M132 123V132H90.6L85.2 128.4L81.6 132H69V123H132Z" fill="#D1E4FF"/>
<path d="M91.654 109.189L94.4771 104.957C94.6092 104.759 94.7789 104.589 94.9767 104.456C95.1744 104.324 95.3963 104.232 95.6297 104.185C95.863 104.139 96.1033 104.139 96.3367 104.185C96.5701 104.231 96.7922 104.323 96.9901 104.455C97.3899 104.722 97.6674 105.136 97.7615 105.607C97.8556 106.079 97.7587 106.568 97.492 106.968L94.6689 111.2C94.4022 111.6 93.9876 111.877 93.5163 111.971C93.045 112.065 92.5557 111.969 92.1559 111.702C91.9579 111.57 91.7879 111.4 91.6555 111.202C91.5232 111.005 91.4311 110.783 91.3845 110.549C91.3379 110.316 91.3377 110.076 91.3839 109.842C91.4302 109.609 91.5219 109.387 91.654 109.189V109.189Z" fill="#FFE28F"/>
<path d="M99.7182 107.063L97.0918 111C96.5364 111.833 96.7611 112.958 97.5937 113.513C98.4262 114.069 99.5513 113.844 100.107 113.012L102.733 109.074C103.289 108.242 103.064 107.116 102.231 106.561C101.399 106.006 100.274 106.23 99.7182 107.063Z" fill="#FFE28F"/>
<path d="M104.882 109.283L102.527 112.813C101.972 113.646 102.197 114.771 103.029 115.326C103.862 115.881 104.987 115.657 105.542 114.824L107.897 111.294C108.452 110.462 108.228 109.337 107.395 108.781C106.563 108.226 105.437 108.451 104.882 109.283Z" fill="#FFE28F"/>
</svg>
