<svg width="160" height="160" viewBox="0 0 160 160" fill="none" xmlns="http://www.w3.org/2000/svg">
<rect width="160" height="160" rx="5" fill="#F7E9C6"/>
<g clip-path="url(#clip0)">
<path d="M82.7394 43.44H55.1576L59.5254 32.5979H78.3716L81.7571 41.0033L82.7394 43.44Z" fill="#B7D4E2"/>
<path d="M59.5239 27.3736V32.5967H78.3712V27.3736C78.3712 26.615 77.7561 26.0001 76.9977 26.0001H60.8976C60.1388 26.0001 59.5239 26.615 59.5239 27.3736V27.3736Z" fill="#668FA3"/>
<path d="M55.1576 43.4401H82.7394V62.5329H55.1576V43.4401Z" fill="#D4EFFF"/>
<path d="M82.7388 43.4401V62.5329H72.603L75.4828 48.2174C75.8506 46.3867 76.7305 44.7399 77.976 43.4401H82.7388Z" fill="#B7D4E2"/>
<path d="M82.7391 47.783V62.5331H59.406V48.8279C59.406 48.2511 59.8741 47.783 60.4509 47.783H82.7391Z" fill="#3EB1FF"/>
<path d="M82.7388 47.783V62.5331H72.603L75.4828 48.2176C75.5121 48.0714 75.5455 47.9272 75.5831 47.783H82.7388Z" fill="#4390FF"/>
<path d="M107.394 54.6497L105.645 63.333H76.7051L79.5807 49.0426C79.9778 47.0698 81.4219 45.4732 83.3424 44.8796L87.612 43.5589C89.5325 42.9653 90.9766 41.3687 91.3737 39.3959L92.7864 32.3761L98.5941 33.5464L101.666 34.1671L100.253 41.1869C99.8564 43.1597 100.569 45.191 102.111 46.4825L105.537 49.354C107.079 50.6476 107.791 52.6787 107.394 54.6497V54.6497Z" fill="#FFC73B"/>
<path d="M107.395 54.6499L105.645 63.3332H102.448L104.323 54.0313C104.492 53.1849 104.187 52.3134 103.522 51.7554L100.097 48.884C97.6748 46.8568 96.5568 43.6698 97.1816 40.5685L98.5944 33.5466L101.666 34.1673L100.254 41.1871C99.8566 43.1599 100.569 45.1912 102.112 46.4828L105.537 49.3542C107.079 50.6478 107.792 52.6789 107.395 54.6499Z" fill="#FFA73E"/>
<path d="M82.739 43.4398H77.9762C79.0107 42.3594 80.3001 41.5151 81.7567 41.0031L82.739 43.4398Z" fill="#99BAC6"/>
<path d="M101.38 53.8267L99.4656 63.3334H82.9663L85.7437 50.6543C85.8733 50.0629 86.4543 49.6825 87.0499 49.8038L100.508 52.5164C101.11 52.6397 101.501 53.2248 101.38 53.8267Z" fill="#D4EFFF"/>
<path d="M102.73 28.8925L101.666 34.1673L98.6027 33.5487L98.5943 33.5466L92.7866 32.3763L93.8483 27.1036C93.9987 26.3596 94.7218 25.8769 95.4658 26.0274L98.611 26.6606L101.654 27.275C102.398 27.4255 102.878 28.1485 102.73 28.8925V28.8925Z" fill="#668FA3"/>
<path d="M102.729 28.8927L101.665 34.1675L98.6017 33.5489L98.5934 33.5468L99.655 28.272C99.8034 27.5385 99.3353 26.8238 98.6101 26.6608L101.653 27.2752C102.397 27.4256 102.878 28.1487 102.729 28.8927V28.8927Z" fill="#4C7889"/>
<path d="M116.916 115.385C116.899 122.68 115.835 127.579 113.668 130.356C112.316 132.084 110.492 133 108.387 133H52.6136C50.5112 133 48.6847 132.084 47.3347 130.356C45.1654 127.579 44.1038 122.68 44.085 115.385C44.0703 109.834 44.6785 102.921 45.8864 94.8331C47.8007 82.0412 50.6471 70.2566 51.0462 68.6307V62.5326C51.0462 61.6674 51.7484 60.9652 52.6136 60.9652H108.387C109.252 60.9652 109.954 61.6674 109.954 62.5326V68.6307C110.354 70.2566 113.202 82.0412 115.114 94.8331C116.324 102.921 116.93 109.834 116.916 115.385Z" fill="#44E0AC"/>
<path d="M116.916 115.385C116.9 122.68 115.836 127.579 113.669 130.356C112.317 132.084 110.492 133 108.388 133H102.118C104.223 133 106.047 132.084 107.399 130.356C109.566 127.579 110.63 122.68 110.647 115.385C110.661 109.834 110.055 102.921 108.845 94.8331C106.933 82.0412 104.085 70.2566 103.686 68.6307V62.5326C103.686 61.6674 102.983 60.9652 102.118 60.9652H108.388C109.253 60.9652 109.955 61.6674 109.955 62.5326V68.6307C110.354 70.2566 113.203 82.0412 115.115 94.8331C116.325 102.921 116.931 109.834 116.916 115.385Z" fill="#0DBFA9"/>
<path d="M109.955 62.5326V68.6307H51.0466V62.5326C51.0466 61.6674 51.7488 60.9652 52.614 60.9652H108.388C109.253 60.9652 109.955 61.6672 109.955 62.5326Z" fill="#668FA3"/>
<path d="M109.955 62.5326V68.6308H103.686V62.5326C103.686 61.6674 102.983 60.9652 102.118 60.9652H108.388C109.253 60.9652 109.955 61.6672 109.955 62.5326Z" fill="#4C7889"/>
<path d="M98.6697 79.6653V92.6056C98.6697 102.67 90.4817 110.86 80.4149 110.86C79.8862 110.86 79.3638 110.837 78.8476 110.791C69.5143 109.995 62.1602 102.142 62.1602 92.6056V79.6653H68.4297V92.6056C68.4297 99.2137 73.8069 104.591 80.4149 104.591C87.0251 104.591 92.4002 99.2137 92.4002 92.6056V79.6653H98.6697Z" fill="#668FA3"/>
<path d="M98.6696 79.6653V92.6056C98.6696 102.67 90.4816 110.86 80.4148 110.86C79.8861 110.86 79.3636 110.837 78.8474 110.791C88.1827 109.995 95.5348 102.142 95.5348 92.6056V79.6653H98.6696Z" fill="#4C7889"/>
<path d="M71.5653 78.0985H59.0262C58.1606 78.0985 57.4589 78.8003 57.4589 79.6659C57.4589 80.5315 58.1606 81.2333 59.0262 81.2333H71.5653C72.4309 81.2333 73.1327 80.5315 73.1327 79.6659C73.1327 78.8003 72.4309 78.0985 71.5653 78.0985Z" fill="#364C59"/>
<path d="M101.805 78.0975H89.2655C88.3999 78.0975 87.6981 78.7993 87.6981 79.6649C87.6981 80.5305 88.3999 81.2323 89.2655 81.2323H101.805C102.67 81.2323 103.372 80.5305 103.372 79.6649C103.372 78.7993 102.67 78.0975 101.805 78.0975Z" fill="#364C59"/>
</g>
<defs>
<clipPath id="clip0">
<rect width="107" height="107" fill="white" transform="translate(27 26)"/>
</clipPath>
</defs>
</svg>
