<svg width="16" height="17" viewBox="0 0 16 17" fill="none" xmlns="http://www.w3.org/2000/svg">
<path d="M6.00535 12.4597C4.84755 12.4597 3.90562 13.3659 3.90562 14.4798C3.90562 15.5938 4.84755 16.5 6.00535 16.5C7.16314 16.5 8.10507 15.5938 8.10507 14.4798C8.10507 13.3659 7.16311 12.4597 6.00535 12.4597ZM6.00535 15.2879C5.54214 15.2879 5.16547 14.9255 5.16547 14.4798C5.16547 14.0342 5.54214 13.6718 6.00535 13.6718C6.46832 13.6718 6.84522 14.0342 6.84522 14.4798C6.84522 14.9254 6.46855 15.2879 6.00535 15.2879Z" fill="white"/>
<path d="M12.2205 12.4597C11.0627 12.4597 10.1208 13.3659 10.1208 14.4798C10.1208 15.5938 11.0627 16.5 12.2205 16.5C13.3783 16.5 14.3202 15.5938 14.3202 14.4798C14.3202 13.3659 13.3783 12.4597 12.2205 12.4597ZM12.2205 15.2879C11.7573 15.2879 11.3806 14.9255 11.3806 14.4798C11.3806 14.0342 11.7573 13.6718 12.2205 13.6718C12.6837 13.6718 13.0604 14.0342 13.0604 14.4798C13.0604 14.9254 12.6837 15.2879 12.2205 15.2879Z" fill="white"/>
<path d="M15.8631 4.44604C15.7434 4.30139 15.562 4.21717 15.37 4.21717H4.34028L3.76768 1.43297C3.7175 1.18913 3.51761 0.99944 3.26332 0.954597L0.743662 0.510162C0.4008 0.44935 0.0732358 0.667755 0.0104513 0.997034C-0.0523332 1.32631 0.174217 1.64206 0.516495 1.70247L2.61495 2.07256L4.46354 11.0621C4.52191 11.3459 4.78081 11.5506 5.08148 11.5506H13.9003C14.1936 11.5506 14.4479 11.356 14.514 11.0807L15.9838 4.95957C16.0271 4.77957 15.9826 4.59048 15.8631 4.44604ZM13.3993 10.3385H5.59882L4.5895 5.42948H14.5778L13.3993 10.3385Z" fill="white"/>
</svg>
