<svg width="20" height="21" viewBox="0 0 20 21" fill="none" xmlns="http://www.w3.org/2000/svg">
<path d="M7.50668 15.697C6.05944 15.697 4.88203 16.8865 4.88203 18.3485C4.88203 19.8106 6.05944 21 7.50668 21C8.95393 21 10.1313 19.8106 10.1313 18.3485C10.1313 16.8865 8.95389 15.697 7.50668 15.697ZM7.50668 19.4091C6.92768 19.4091 6.45684 18.9334 6.45684 18.3485C6.45684 17.7636 6.92768 17.2879 7.50668 17.2879C8.0854 17.2879 8.55653 17.7636 8.55653 18.3485C8.55653 18.9334 8.08569 19.4091 7.50668 19.4091Z" fill="#144345"/>
<path d="M15.2756 15.697C13.8284 15.697 12.651 16.8865 12.651 18.3485C12.651 19.8106 13.8284 21 15.2756 21C16.7229 21 17.9003 19.8106 17.9003 18.3485C17.9003 16.8865 16.7229 15.697 15.2756 15.697ZM15.2756 19.4091C14.6966 19.4091 14.2258 18.9334 14.2258 18.3485C14.2258 17.7636 14.6966 17.2879 15.2756 17.2879C15.8546 17.2879 16.3255 17.7636 16.3255 18.3485C16.3255 18.9334 15.8546 19.4091 15.2756 19.4091Z" fill="#144345"/>
<path d="M19.8288 5.17918C19.6792 4.98932 19.4525 4.87879 19.2126 4.87879H5.42534L4.7096 1.22452C4.64687 0.904479 4.39702 0.655516 4.07916 0.596659L0.929578 0.013338C0.501 -0.0664779 0.0915447 0.220179 0.0130641 0.652357C-0.0654165 1.08454 0.217771 1.49896 0.645619 1.57824L3.26869 2.06398L5.57942 13.8628C5.65238 14.2353 5.97601 14.5039 6.35184 14.5039H17.3753C17.742 14.5039 18.0599 14.2485 18.1425 13.8871L19.9798 5.85319C20.0338 5.61694 19.9782 5.36876 19.8288 5.17918ZM16.7491 12.913H6.99853L5.73687 6.46994H18.2223L16.7491 12.913Z" fill="#144345"/>
</svg>
