<svg width="70" height="70" viewBox="0 0 70 70" fill="none" xmlns="http://www.w3.org/2000/svg">
<rect x="3" y="35" width="63" height="20" fill="#F1C8A4"/>
<path d="M35.4218 59.1993H66M61.9468 59.1993V22.7677M47.2835 59.1993V31.2378M32.7455 29.7715L42.5925 20.2702L47.2835 25.0209L61.9468 10M61.9468 10H54.4125M61.9468 10V17.4329M24.3588 41.5438C24.49 40.1192 23.8105 38.6291 22.6004 37.8661C21.3904 37.1031 19.7095 37.1329 18.577 38.0032C17.4445 38.8794 16.9974 40.5603 17.6114 41.8538C18.9525 44.691 23.8879 44.3692 24.3052 47.874C24.5973 50.306 22.0044 51.7723 19.8526 51.4027C17.963 51.0809 16.9736 49.6861 16.9736 47.8204M20.7109 37.3177V35.4937M20.7109 53.2803V51.4623M35.4218 44.4884C35.4218 52.613 28.8355 59.1993 20.7109 59.1993C12.5863 59.1993 6 52.613 6 44.4884C6 36.3638 12.5863 29.7775 20.7109 29.7775C28.8355 29.7775 35.4218 36.3638 35.4218 44.4884Z" stroke="#0D5255" stroke-width="2" stroke-miterlimit="10" stroke-linecap="round" stroke-linejoin="round"/>
</svg>
