<svg width="40" height="50" viewBox="0 0 40 50" fill="none" xmlns="http://www.w3.org/2000/svg">
<path d="M40 47.0665L40 0.000980377L8.22385e-06 0.00097691L4.07347e-06 47.0665C3.94916e-06 48.4761 1.41926 49.4434 2.7313 48.928L19.6344 42.2875C19.8694 42.1952 20.1306 42.1952 20.3657 42.2875L37.2687 48.928C38.5807 49.4434 40 48.4761 40 47.0665Z" fill="#F3803F"/>
<path d="M17.1475 16.8672C16.4778 16.8672 15.933 17.412 15.933 18.0817C15.933 18.7514 16.4778 19.2963 17.1475 19.2963C17.8172 19.2963 18.3621 18.7515 18.3621 18.0817C18.362 17.4121 17.8172 16.8672 17.1475 16.8672Z" fill="white"/>
<path d="M31.0113 22.2957C30.9096 22.0877 30.9096 21.8491 31.0113 21.6411L31.9538 19.7131C32.4785 18.6395 32.0627 17.36 31.0072 16.8L29.1115 15.7941C28.907 15.6856 28.7668 15.4926 28.7267 15.2646L28.356 13.1508C28.1495 11.9739 27.0609 11.183 25.878 11.3504L23.7531 11.6509C23.5237 11.6833 23.2969 11.6096 23.1306 11.4486L21.5882 9.95652C20.7294 9.12568 19.3839 9.12563 18.5252 9.95652L16.9827 11.4488C16.8163 11.6098 16.5895 11.6834 16.3602 11.6511L14.2353 11.3505C13.052 11.183 11.9638 11.974 11.7573 13.1509L11.3866 15.2646C11.3465 15.4927 11.2063 15.6857 11.0018 15.7942L9.10612 16.8001C8.05062 17.3601 7.63485 18.6397 8.15959 19.7132L9.10202 21.6412C9.2037 21.8492 9.2037 22.0878 9.10202 22.2958L8.15954 24.2238C7.6348 25.2973 8.05057 26.5768 9.10607 27.1369L11.0018 28.1427C11.2063 28.2512 11.3465 28.4443 11.3866 28.6723L11.7573 30.7861C11.9453 31.8575 12.864 32.6089 13.9198 32.6088C14.0238 32.6088 14.1293 32.6015 14.2354 32.5865L16.3603 32.2859C16.5894 32.2534 16.8163 32.3272 16.9828 32.4882L18.5252 33.9803C18.9547 34.3958 19.5056 34.6034 20.0567 34.6034C20.6076 34.6033 21.1588 34.3957 21.5881 33.9803L23.1306 32.4882C23.297 32.3272 23.5238 32.2537 23.7531 32.2859L25.878 32.5865C27.0614 32.7539 28.1495 31.963 28.356 30.786L28.7268 28.6723C28.7668 28.4443 28.907 28.2513 29.1115 28.1427L31.0072 27.1369C32.0627 26.5769 32.4785 25.2973 31.9538 24.2238L31.0113 22.2957ZM17.1417 15.4098C18.615 15.4098 19.8137 16.6085 19.8137 18.0819C19.8137 19.5552 18.615 20.7539 17.1417 20.7539C15.6684 20.7539 14.4697 19.5552 14.4697 18.0819C14.4697 16.6085 15.6684 15.4098 17.1417 15.4098ZM15.7625 27.293C15.6202 27.4353 15.4337 27.5065 15.2473 27.5065C15.0608 27.5065 14.8742 27.4354 14.732 27.293C14.4474 27.0085 14.4474 26.547 14.732 26.2625L24.3507 16.6437C24.6353 16.3591 25.0967 16.3591 25.3813 16.6437C25.6659 16.9283 25.6659 17.3897 25.3813 17.6743L15.7625 27.293ZM22.9715 28.527C21.4982 28.527 20.2995 27.3283 20.2995 25.855C20.2995 24.3816 21.4982 23.183 22.9715 23.183C24.4448 23.183 25.6435 24.3816 25.6435 25.855C25.6435 27.3283 24.4448 28.527 22.9715 28.527Z" fill="white"/>
<path d="M22.9704 24.6406C22.3007 24.6406 21.7559 25.1855 21.7559 25.8552C21.7559 26.5248 22.3007 27.0697 22.9704 27.0697C23.6401 27.0697 24.185 26.5248 24.185 25.8552C24.185 25.1855 23.6401 24.6406 22.9704 24.6406Z" fill="white"/>
</svg>
