<svg width="20" height="20" viewBox="0 0 20 20" fill="none" xmlns="http://www.w3.org/2000/svg">
<path d="M17.5125 7.87936C17.4609 7.72186 17.3229 7.607 17.157 7.58321L12.4964 6.91406L10.412 2.74249C10.338 2.59398 10.1847 2.5 10.017 2.5C9.84935 2.5 9.69637 2.59398 9.62208 2.74249L7.5376 6.91435L2.87708 7.58321C2.71118 7.607 2.57347 7.72186 2.5215 7.87936C2.46982 8.03686 2.51298 8.20973 2.63308 8.32546L6.00543 11.5726L5.2094 16.1581C5.18091 16.3214 5.24904 16.4862 5.38469 16.5836C5.46133 16.6387 5.55236 16.6666 5.64368 16.6666C5.71385 16.6666 5.78403 16.65 5.84863 16.6167L10.017 14.4517L14.1854 16.6167C14.3337 16.6938 14.5137 16.6808 14.6493 16.5836C14.785 16.4865 14.8528 16.3214 14.8246 16.1581L14.0283 11.5729L17.401 8.32546C17.5211 8.20973 17.5642 8.03686 17.5125 7.87936Z" fill="#F3803F"/>
</svg>
