<svg width="24" height="24" viewBox="0 0 24 24" fill="none" xmlns="http://www.w3.org/2000/svg">
<mask id="mask0" mask-type="alpha" maskUnits="userSpaceOnUse" x="0" y="0" width="24" height="24">
<path fill-rule="evenodd" clip-rule="evenodd" d="M0 0H23.9951V24H0V0Z" fill="white"/>
</mask>
<g mask="url(#mask0)">
<path fill-rule="evenodd" clip-rule="evenodd" d="M21.7732 16.8545C21.7219 18.0263 21.5252 18.6595 21.3613 19.0814C20.9574 20.1266 20.1275 20.9564 19.0824 21.3603C18.6605 21.5243 18.0226 21.7209 16.8555 21.7722C15.5897 21.8289 15.2098 21.8422 12.0078 21.8422C8.80505 21.8422 8.42112 21.8289 7.15937 21.7722C5.9876 21.7209 5.35439 21.5243 4.93247 21.3603C4.41257 21.1677 3.93866 20.8631 3.55407 20.4645C3.15548 20.0752 2.85087 19.6067 2.65891 19.0861C2.49494 18.6642 2.29765 18.0263 2.24632 16.8592C2.18967 15.5928 2.17567 15.2135 2.17567 12.0108C2.17567 8.80877 2.18967 8.42484 2.24632 7.16309C2.29765 5.99132 2.49494 5.35811 2.65891 4.93686C2.85087 4.41562 3.15548 3.94238 3.55874 3.55779C3.94799 3.15987 4.41657 2.85459 4.93714 2.66263C5.35972 2.49866 5.99693 2.30203 7.1647 2.25004C8.42979 2.19339 8.80972 2.17939 12.0118 2.17939C15.2191 2.17939 15.5984 2.19339 16.8601 2.25004C18.0326 2.30203 18.6651 2.49866 19.0871 2.66263C19.6076 2.85459 20.0809 3.15987 20.4654 3.55779C20.864 3.94705 21.1686 4.41562 21.3613 4.93686C21.5252 5.35811 21.7219 5.99598 21.7732 7.16309C21.8299 8.42951 21.8432 8.80877 21.8432 12.0108C21.8432 15.2135 21.8299 15.5888 21.7732 16.8545M23.9344 7.05638C23.8778 5.7813 23.6725 4.90414 23.3765 4.14495C23.0719 3.33844 22.6027 2.61658 21.9888 2.01603C21.3889 1.40682 20.6617 0.932908 19.8652 0.632966C19.1007 0.33769 18.2289 0.13173 16.9538 0.0750745C15.6687 0.0144197 15.2608 -0.000244141 12.0028 -0.000244141C8.74406 -0.000244141 8.33613 0.0144197 7.05572 0.0704088C5.78063 0.126398 4.90414 0.333024 4.14495 0.6283C3.33844 0.932908 2.61591 1.40148 2.01603 2.01603C1.40682 2.61658 0.932908 3.34311 0.632966 4.14028C0.33769 4.90414 0.131064 5.77597 0.0750745 7.05172C0.0137531 8.33613 -0.000244141 8.74406 -0.000244141 12.0028C-0.000244141 15.2608 0.0137531 15.6687 0.0704088 16.9491C0.126398 18.2242 0.333024 19.1007 0.6283 19.8606C0.932908 20.6671 1.40682 21.3889 2.01603 21.9888C2.61591 22.598 3.34311 23.0719 4.13962 23.3719C4.90414 23.6672 5.77597 23.8731 7.05172 23.9298C8.33147 23.9858 8.73939 24.0004 11.9981 24.0004C15.2568 24.0004 15.664 23.9858 16.9445 23.9298C18.2195 23.8731 19.096 23.6672 19.8552 23.3719C21.4682 22.7487 22.7433 21.4736 23.3672 19.8606C23.6625 19.096 23.8691 18.2242 23.9251 16.9491C23.9811 15.6687 23.9951 15.2608 23.9951 12.0028C23.9951 8.74406 23.9904 8.33613 23.9344 7.05638" fill="white"/>
</g>
<path fill-rule="evenodd" clip-rule="evenodd" d="M12.0035 16.0028C9.79526 16.0028 8.00427 14.2112 8.00427 12.0036C8.00427 9.79538 9.79526 8.0044 12.0035 8.0044C14.2117 8.0044 16.0027 9.79538 16.0027 12.0036C16.0027 14.2112 14.2117 16.0028 12.0035 16.0028M12.0032 5.83789C8.59923 5.83789 5.83777 8.59935 5.83777 12.0034C5.83777 15.4067 8.59923 18.1688 12.0032 18.1688C15.4066 18.1688 18.168 15.4067 18.168 12.0034C18.168 8.59935 15.4066 5.83789 12.0032 5.83789" fill="white"/>
<path fill-rule="evenodd" clip-rule="evenodd" d="M19.8503 5.59384C19.8503 6.38902 19.2057 7.03356 18.4112 7.03356C17.616 7.03356 16.9722 6.38902 16.9722 5.59384C16.9722 4.79933 17.616 4.15479 18.4112 4.15479C19.2057 4.15479 19.8503 4.79933 19.8503 5.59384" fill="white"/>
</svg>
