<svg width="24" height="24" viewBox="0 0 24 24" fill="none" xmlns="http://www.w3.org/2000/svg">
<path d="M12.4996 0C7.26143 0 3 4.14925 3 9.2494C3 12.8937 4.56718 16.58 7.53213 19.9099C9.74665 22.397 11.9413 23.8061 12.0337 23.8649C12.1752 23.955 12.3375 24 12.4997 24C12.6619 24 12.8241 23.955 12.9657 23.8649C13.058 23.8061 15.253 22.397 17.4675 19.91C20.4327 16.58 22 12.8937 22 9.2494C21.9999 4.14925 17.738 0 12.4996 0ZM12.4996 22.1529C10.7524 20.8854 4.70321 16.0074 4.70321 9.2494C4.70321 5.06356 8.20059 1.65815 12.4996 1.65815C16.799 1.65815 20.2967 5.06356 20.2967 9.2494C20.2967 16.0074 14.2469 20.8854 12.4996 22.1529Z" fill="white"/>
<path d="M12.5002 5.57681C10.4211 5.57681 8.72972 7.22358 8.72972 9.24785C8.72972 11.2716 10.4211 12.918 12.5002 12.918C14.5792 12.918 16.2705 11.2716 16.2705 9.24785C16.2705 7.22369 14.5791 5.57681 12.5002 5.57681ZM12.5002 11.2599C11.3603 11.2599 10.4329 10.3573 10.4329 9.24785C10.4329 8.13788 11.3603 7.23496 12.5002 7.23496C13.64 7.23496 14.5673 8.13788 14.5673 9.24785C14.5673 10.3573 13.64 11.2599 12.5002 11.2599Z" fill="white"/>
</svg>
