<svg width="193" height="36" viewBox="0 0 193 36" fill="none" xmlns="http://www.w3.org/2000/svg">
<path fill-rule="evenodd" clip-rule="evenodd" d="M111.758 10.7576C110.94 11.5189 110.263 11.688 109.305 11.688C108.684 11.688 108.233 11.4061 108.233 10.955C108.233 10.7012 108.374 10.4193 108.515 10.1937L110.066 7.76893C110.432 7.17684 110.968 6.8103 111.673 6.8103C112.716 6.8103 114.07 7.45879 114.07 8.10727C114.07 8.502 113.844 8.81214 113.506 9.12229L111.758 10.7576ZM49.9684 28.6339C52.4496 28.6339 54.0567 27.8444 55.3255 26.6884C55.692 26.3501 55.9458 25.899 55.9458 25.3351C55.9458 24.3201 55.1563 23.5024 54.1413 23.5024C53.6338 23.5024 53.2109 23.728 52.9853 23.8972C52.1676 24.5456 51.2936 24.9404 50.1658 24.9404C47.8945 24.9404 46.4199 23.1873 46.3352 20.9703L46.3313 20.7111C46.3313 18.4837 47.8538 16.5947 49.9966 16.5947C51.1244 16.5947 51.9139 16.9612 52.6752 17.5533C52.9289 17.7507 53.3518 17.9762 53.9157 17.9762C54.9871 17.9762 55.8612 17.1304 55.8612 16.059C55.8612 15.387 55.5295 14.9045 55.257 14.6551L55.1845 14.5928C53.9157 13.5214 52.3086 12.9011 50.0248 12.9011C45.4849 12.9011 42.2224 16.3257 42.1053 20.533L42.1021 20.8239C42.1021 25.1377 45.4291 28.6339 49.9684 28.6339ZM65.4577 28.6339C70.0806 28.6339 73.5349 25.2365 73.6589 21.0035L73.6624 20.7111C73.6624 16.3691 70.1944 12.9011 65.5141 12.9011C60.8911 12.9011 57.4369 16.2985 57.3128 20.5315L57.3093 20.8239C57.3093 25.1659 60.7773 28.6339 65.4577 28.6339ZM61.5498 20.9633C61.6408 23.1077 63.2224 24.9404 65.5211 24.9404C67.9741 24.9404 69.4402 23.0514 69.4402 20.824L69.4361 20.5718C69.345 18.4274 67.7635 16.5947 65.4648 16.5947C63.0118 16.5947 61.5457 18.4838 61.5457 20.7112L61.5498 20.9633ZM76.2959 26.3219C76.2959 27.5061 77.2545 28.4647 78.4387 28.4647C79.6229 28.4647 80.5815 27.5061 80.5815 26.3219V19.8653C80.5815 17.8352 81.6247 16.792 83.26 16.792C84.8954 16.792 85.854 17.8352 85.854 19.8653V26.3219C85.854 27.5061 86.8126 28.4647 87.9968 28.4647C89.181 28.4647 90.1396 27.5061 90.1396 26.3219V18.5119C90.1396 15.0439 88.2506 12.9011 85.0081 12.9011C82.8371 12.9011 81.5684 14.0571 80.5815 15.3259V15.1567C80.5815 13.9725 79.6229 13.0139 78.4387 13.0139C77.2545 13.0139 76.2959 13.9725 76.2959 15.1567V26.3219ZM104.465 23.9232C104.354 27.1208 101.885 28.575 98.6886 28.575C96.8277 28.575 94.8259 28.0392 92.9932 26.8551C92.5421 26.5731 92.1755 26.0656 92.1755 25.3889C92.1755 24.4303 92.9086 23.6972 93.8672 23.6972C94.1774 23.6972 94.4875 23.7818 94.7131 23.9228C96.151 24.825 97.589 25.2761 98.8013 25.2761C100.042 25.2761 100.606 24.825 100.606 24.1483V24.092C100.606 23.3848 99.759 23.036 98.6223 22.6865L97.1216 22.2368C95.1027 21.6079 92.965 20.5739 92.965 17.8045L92.9694 17.5256C93.0864 14.592 95.5204 12.955 98.4912 12.955C100.07 12.955 101.705 13.3779 103.172 14.1109C103.792 14.4211 104.187 14.985 104.187 15.7181C104.187 16.6767 103.425 17.4098 102.467 17.4098C102.157 17.4098 101.959 17.3534 101.677 17.2124L101.399 17.0798C100.289 16.5661 99.2395 16.2538 98.4066 16.2538C97.3634 16.2538 96.8277 16.7049 96.8277 17.297V17.3534C96.8277 18.023 97.7289 18.4099 98.9158 18.8218L100.266 19.282C102.288 19.9844 104.469 21.0356 104.469 23.6408L104.465 23.9232ZM107.271 26.3245C107.271 27.5087 108.229 28.4673 109.414 28.4673C110.598 28.4673 111.556 27.5087 111.556 26.3245V15.1593C111.556 13.9751 110.598 13.0165 109.414 13.0165C108.229 13.0165 107.271 13.9751 107.271 15.1593V26.3245ZM121.88 32.8631C124.812 32.8631 126.983 32.2428 128.393 30.8331C129.661 29.5643 130.31 27.5907 130.31 24.884V15.1567C130.31 13.9725 129.351 13.0139 128.167 13.0139C127.032 13.0139 126.104 13.8943 126.029 14.9851L126.024 15.1567C124.868 13.8879 123.487 12.9011 121.146 12.9011C117.748 12.9011 114.566 15.3382 114.44 19.6816L114.436 20.0062C114.436 24.4892 117.622 27.055 121.146 27.055C123.43 27.055 124.812 26.1245 126.081 24.602V25.3351C126.081 28.0418 124.699 29.4515 121.767 29.4515C120.16 29.4515 118.834 29.1132 117.594 28.5493C117.397 28.4647 117.171 28.4083 116.889 28.4083C115.93 28.4083 115.141 29.1978 115.141 30.1564C115.141 30.9459 115.62 31.538 116.353 31.8199C118.13 32.5248 119.878 32.8631 121.88 32.8631ZM118.73 20.2003C118.824 22.1798 120.369 23.5028 122.39 23.5028C124.477 23.5028 126.084 22.0649 126.084 20.0067L126.079 19.7592C125.983 17.8036 124.412 16.4541 122.39 16.4541C120.304 16.4541 118.725 17.892 118.725 19.9503L118.73 20.2003ZM147.411 15.1593C147.411 13.9751 146.453 13.0165 145.269 13.0165C144.084 13.0165 143.126 13.9751 143.126 15.1593V21.6159C143.126 23.646 142.082 24.6892 140.447 24.6892C138.812 24.6892 137.853 23.646 137.853 21.6159V15.1593C137.853 13.9751 136.895 13.0165 135.71 13.0165C134.526 13.0165 133.568 13.9751 133.568 15.1593V22.9693C133.568 26.4373 135.457 28.5801 138.699 28.5801C140.87 28.5801 142.139 27.4241 143.126 26.1553V26.3245C143.126 27.5087 144.084 28.4673 145.269 28.4673C146.453 28.4673 147.411 27.5087 147.411 26.3245V15.1593ZM157.512 16.3398C155.736 16.3398 154.58 17.6086 154.242 19.5541H160.698C160.445 17.6368 159.317 16.3398 157.512 16.3398ZM163.182 26.8012C163.492 26.5193 163.745 26.0964 163.745 25.5325C163.745 24.5738 163.041 23.8408 162.082 23.8408C161.687 23.8408 161.422 23.9271 161.154 24.0998L161.039 24.1791C160.165 24.8276 159.178 25.1941 157.994 25.1941C156.076 25.1941 154.723 24.1791 154.3 22.2336H162.787C163.915 22.2336 164.789 21.416 164.789 20.1754C164.789 17.0458 162.561 12.9011 157.514 12.9011C153.197 12.9011 150.157 16.3233 150.046 20.5287L150.043 20.8239C150.043 25.4479 153.398 28.6339 157.937 28.6339C160.137 28.6339 161.856 27.929 163.182 26.8012ZM169.926 28.4637C168.742 28.4637 167.783 27.5051 167.783 26.3209V9.68591C167.783 8.50172 168.742 7.54309 169.926 7.54309C171.11 7.54309 172.069 8.50172 172.069 9.68591V26.3209C172.069 27.5051 171.11 28.4637 169.926 28.4637ZM183.047 28.6339C187.669 28.6339 191.124 25.2365 191.248 21.0035L191.251 20.7111C191.251 16.3691 187.783 12.9011 183.103 12.9011C178.48 12.9011 175.026 16.2985 174.902 20.5315L174.898 20.8239C174.898 25.1659 178.366 28.6339 183.047 28.6339ZM179.13 20.9633C179.221 23.1077 180.803 24.9404 183.101 24.9404C185.554 24.9404 187.02 23.0514 187.02 20.824L187.016 20.5718C186.925 18.4274 185.344 16.5947 183.045 16.5947C180.592 16.5947 179.126 18.4838 179.126 20.7112L179.13 20.9633Z" fill="#F8E4D2"/>
<path fill-rule="evenodd" clip-rule="evenodd" d="M21.6033 14.314C20.5758 14.314 19.6335 14.6203 18.8031 15.2241C18.0066 15.8034 17.4766 16.5408 17.1645 17.0771C16.8525 16.5408 16.3225 15.8034 15.526 15.2241C14.6956 14.6203 13.7532 14.314 12.7257 14.314C9.8577 14.314 7.69482 16.5199 7.69482 19.4452C7.69482 22.6054 10.3929 24.7678 14.4779 28.0408C15.1714 28.5969 15.9578 29.2269 16.7749 29.8987C16.8826 29.9874 17.0211 30.0362 17.1645 30.0362C17.3079 30.0362 17.4465 29.9874 17.5541 29.8987C18.3715 29.2267 19.1577 28.5969 19.8517 28.0406C23.9359 24.7678 26.6342 22.6054 26.6342 19.4452C26.6342 16.5199 24.4714 14.314 21.6033 14.314" fill="#F8E4D2"/>
<mask id="mask0" mask-type="alpha" maskUnits="userSpaceOnUse" x="2" y="2" width="31" height="28">
<path fill-rule="evenodd" clip-rule="evenodd" d="M2.25 2.25H32.0716V29.8499H2.25V2.25Z" fill="white"/>
</mask>
<g mask="url(#mask0)">
<path fill-rule="evenodd" clip-rule="evenodd" d="M30.716 29.85C29.9673 29.85 29.3605 29.2433 29.3605 28.4945V13.1212L17.1608 5.22036L4.96105 13.1212V28.4945C4.96105 29.2433 4.35432 29.85 3.60553 29.85C2.85673 29.85 2.25 29.2433 2.25 28.4945V12.384C2.25 11.9245 2.48288 11.4962 2.86866 11.2462L16.4239 2.46756C16.8726 2.17748 17.449 2.17748 17.8976 2.46756L31.4529 11.2462C31.8387 11.4962 32.0716 11.9245 32.0716 12.384V28.4945C32.0716 29.2433 31.4648 29.85 30.716 29.85" fill="#F8E4D2"/>
</g>
</svg>
