<svg width="70" height="70" viewBox="0 0 70 70" fill="none" xmlns="http://www.w3.org/2000/svg">
<g clip-path="url(#clip0)">
<circle cx="35" cy="26" r="17" fill="#F1C8A4"/>
<path d="M53.4127 26.1122C53.4127 16.0228 45.2042 7.81433 35.1148 7.81433C25.0249 7.81433 16.8164 16.0228 16.8164 26.1122C16.8164 36.2022 25.0249 44.4106 35.1148 44.4106C45.2042 44.4106 53.4127 36.2022 53.4127 26.1122ZM35.1148 42.3599C26.156 42.3599 18.8672 35.071 18.8672 26.1122C18.8672 17.1539 26.156 9.86511 35.1148 9.86511C44.0736 9.86511 51.3619 17.1539 51.3619 26.1122C51.3619 35.071 44.0736 42.3599 35.1148 42.3599Z" fill="#0D5255"/>
<path d="M47.8581 22.101C47.6647 21.5049 47.1141 21.1049 46.4877 21.1049H38.8464L36.4853 13.838C36.2914 13.2425 35.7408 12.8425 35.1149 12.8425C34.489 12.8425 33.9384 13.2425 33.7445 13.838L31.3835 21.1055H23.7422C23.1157 21.1055 22.5651 21.5055 22.3718 22.101C22.1784 22.6964 22.3889 23.3437 22.8951 23.7117L29.0769 28.2031L26.7158 35.47C26.5225 36.0655 26.7323 36.7133 27.2392 37.0813C27.7455 37.4492 28.4264 37.4492 28.9332 37.0813L35.1149 32.5898L41.2966 37.0813C41.5503 37.2655 41.8467 37.3574 42.1437 37.3574C42.4406 37.3574 42.7375 37.2655 42.9907 37.0813C43.4975 36.7133 43.7074 36.0655 43.514 35.47L41.1524 28.2031L47.3342 23.7117C47.841 23.3437 48.0514 22.6964 47.8581 22.101ZM39.5887 26.8044C39.0824 27.1724 38.872 27.8196 39.0653 28.4157L40.9831 34.3186L35.9619 30.6704C35.7083 30.4862 35.4119 30.3943 35.1149 30.3943C34.818 30.3943 34.521 30.4862 34.2679 30.6704L29.2467 34.3186L31.1645 28.4151C31.3578 27.8196 31.1474 27.1724 30.6411 26.8044L25.6194 23.1557H31.8267C32.4526 23.1557 33.0033 22.7557 33.1971 22.1602L35.1149 16.2568L37.0327 22.1602C37.2266 22.7557 37.7772 23.1557 38.4031 23.1557H44.6105L39.5887 26.8044Z" fill="#0D5255"/>
<path d="M62.3632 60.0351L52.7485 43.1557L54.4329 42.6152C56.4623 41.9647 57.8018 40.024 57.6907 37.8957L57.563 35.4514C57.5241 34.7117 57.7996 33.9843 58.3193 33.4561L60.0363 31.7114C61.5306 30.192 61.8147 27.8512 60.7273 26.0183L59.4782 23.9136C59.1001 23.2764 59.0066 22.5042 59.2208 21.795L59.93 19.4521C60.5474 17.4125 59.711 15.2079 57.8968 14.0906L55.8124 12.8068C55.1817 12.4185 54.7395 11.7787 54.6001 11.0508L54.1392 8.647C53.7381 6.55402 51.9731 4.9903 49.847 4.84397L47.4047 4.67628C46.6656 4.62554 45.9772 4.26398 45.5158 3.68453L43.99 1.76993C42.6623 0.103674 40.3723 -0.460291 38.4224 0.397939L36.182 1.38434C36.182 1.38434 36.182 1.38434 36.1815 1.38434C35.5038 1.68288 34.7262 1.68288 34.0479 1.38434L31.8076 0.397939C29.8572 -0.460291 27.5677 0.103674 26.2395 1.77047L24.7142 3.68453C24.2528 4.26398 23.5644 4.62554 22.8253 4.67628L20.383 4.84397C18.2569 4.9903 16.4919 6.55402 16.0908 8.647L15.6299 11.0508C15.49 11.7782 15.0483 12.4185 14.4176 12.8068L12.3332 14.0901C10.519 15.2074 9.68264 17.4125 10.3 19.4521L11.0087 21.795C11.2234 22.5042 11.1299 23.2759 10.7518 23.913L9.50266 26.0183C8.41532 27.8506 8.69944 30.192 10.1937 31.7108L11.9107 33.4561C12.4298 33.9843 12.7059 34.7112 12.667 35.4508L12.5393 37.8957C12.4282 40.0234 13.7676 41.9642 15.7965 42.6152L17.4815 43.1551L7.86684 60.0351C7.57631 60.5451 7.58699 61.1721 7.89515 61.672C8.2033 62.1719 8.76139 62.4645 9.34511 62.4325L17.3811 62.0165L21.1222 69.1413C21.3951 69.6604 21.9291 69.9899 22.516 69.9996C22.5251 69.9996 22.5342 70.0001 22.5433 70.0001C23.1195 70.0001 23.6525 69.6914 23.9382 69.1894L33.7227 52.0109C34.1756 52.1513 34.645 52.2245 35.115 52.2245C35.585 52.2245 36.0539 52.1513 36.5073 52.0109L46.2918 69.1894C46.5775 69.6914 47.1099 70.0001 47.6862 70.0001C47.6953 70.0001 47.7049 70.0001 47.714 69.9996C48.3009 69.9899 48.8349 69.661 49.1078 69.1413L52.8484 62.0165L60.8849 62.4325C61.4734 62.4635 62.0267 62.1713 62.3343 61.672C62.6425 61.1721 62.6537 60.5451 62.3632 60.0351ZM22.5593 67.4671L19.152 60.9782L21.1638 57.4471C21.4442 56.9547 21.2728 56.3287 20.7804 56.0484C20.289 55.7685 19.6626 55.9399 19.3822 56.4318L17.3704 59.9635L10.0517 60.3427L19.2919 44.1207C19.466 44.3156 19.6134 44.5362 19.7245 44.7776L20.7478 47.002C21.2786 48.1561 22.2357 49.0116 23.3663 49.4362L21.7641 52.2496C21.4837 52.7415 21.6557 53.3679 22.1475 53.6483C22.3078 53.7391 22.4824 53.7824 22.6544 53.7824C23.0106 53.7824 23.3572 53.5965 23.5462 53.2643L25.5751 49.7027C25.6584 49.6925 25.7418 49.6813 25.8251 49.6664L28.2369 49.245C28.9659 49.1174 29.721 49.3037 30.3079 49.7556L31.9341 51.0079L22.5593 67.4671ZM36.448 49.8122C36.4443 49.8143 36.4411 49.8154 36.4379 49.8175C36.4325 49.8207 36.4272 49.8245 36.4218 49.8277C35.6127 50.2875 34.6173 50.2875 33.8082 49.8277C33.8028 49.8245 33.798 49.8207 33.7921 49.8175C33.7889 49.8154 33.7857 49.8143 33.7825 49.8122C33.6853 49.7556 33.5903 49.6947 33.4995 49.6247L31.5598 48.131C30.7336 47.4944 29.7194 47.1547 28.6887 47.1547C28.4206 47.1547 28.1514 47.1782 27.8839 47.2247L25.4721 47.646C25.3166 47.6733 25.1612 47.6856 25.0074 47.685C24.9946 47.6845 24.9823 47.6839 24.97 47.6839C23.9687 47.6663 23.0416 47.0805 22.6111 46.1443L21.5878 43.9204C21.1505 42.9693 20.4054 42.1965 19.4885 41.718C19.4863 41.7169 19.4847 41.7153 19.4826 41.7143C19.4767 41.711 19.4708 41.7084 19.4655 41.7057C19.4436 41.6945 19.4217 41.6833 19.3998 41.6726C19.3945 41.6699 19.3902 41.6678 19.3849 41.6657C19.1819 41.5658 18.9715 41.4798 18.7541 41.4098L16.423 40.6627C15.2796 40.2958 14.5244 39.202 14.5874 38.0031L14.7151 35.5582C14.7834 34.2455 14.2942 32.9552 13.3724 32.0184L11.656 30.2731C10.8138 29.417 10.6536 28.0979 11.2661 27.065L12.5153 24.9598C13.1861 23.8292 13.3527 22.4593 12.9719 21.2011L12.2627 18.8582C11.9145 17.7089 12.386 16.4661 13.4088 15.837L15.4932 14.5531C16.6126 13.8637 17.3966 12.7283 17.6438 11.4369L18.1047 9.03312C18.3306 7.85392 19.3256 6.97272 20.5235 6.88995L22.9657 6.72225C24.2768 6.632 25.4988 5.99059 26.318 4.96253L27.8433 3.04847C28.592 2.10906 29.8823 1.7913 30.9814 2.27515L33.2212 3.26102C34.4245 3.79081 35.805 3.79081 37.0077 3.26102L39.2481 2.27515C40.3477 1.7913 41.6374 2.10906 42.3857 3.04847L43.9115 4.96307C44.7302 5.99113 45.9526 6.632 47.2637 6.72225L49.706 6.89048C50.9039 6.97272 51.8988 7.85392 52.1247 9.03312L52.5856 11.4374C52.8334 12.7283 53.6174 13.8642 54.7363 14.5531L56.8207 15.837C57.8434 16.4667 58.315 17.7089 57.9668 18.8582L57.2576 21.2016C56.8768 22.4593 57.0434 23.8292 57.7142 24.9603L58.9633 27.065C59.5759 28.0979 59.4162 29.417 58.5735 30.2731L56.857 32.0184C55.9352 32.9552 55.446 34.2455 55.5144 35.5587L55.642 38.0031C55.7051 39.202 54.9499 40.2958 53.8065 40.6627L51.4753 41.4098C51.258 41.4798 51.0475 41.5658 50.8446 41.6651C50.8393 41.6678 50.8345 41.6699 50.8296 41.6721C50.8077 41.6833 50.7853 41.6945 50.7634 41.7057C50.7581 41.7089 50.7522 41.711 50.7469 41.7143C50.7447 41.7153 50.7431 41.7164 50.7415 41.7175C49.824 42.196 49.079 42.9693 48.6416 43.9204L47.6184 46.1448C47.1884 47.0799 46.2624 47.6658 45.2616 47.6839C45.2471 47.6839 45.2322 47.6845 45.2178 47.6856C45.065 47.6856 44.9112 47.6733 44.7569 47.646L42.3456 47.2247C41.0505 46.9982 39.7106 47.3288 38.6692 48.131L36.73 49.6247C36.6397 49.6947 36.5447 49.7556 36.448 49.8122ZM52.8596 59.9635L50.8312 56.403C50.5509 55.9106 49.9244 55.7391 49.4331 56.0195C48.9407 56.2999 48.7692 56.9258 49.0496 57.4182L51.0774 60.9782L47.6707 67.4671L38.2958 51.0079L39.9215 49.7556C40.5084 49.3037 41.2636 49.1174 41.9931 49.245L44.4044 49.6664C44.4877 49.6813 44.5716 49.6925 44.6549 49.7027L46.6827 53.2633C46.8717 53.5949 47.2183 53.7813 47.5746 53.7813C47.7465 53.7813 47.9212 53.738 48.0814 53.6467C48.5732 53.3663 48.7447 52.7404 48.4648 52.248L46.8632 49.4362C47.9938 49.0111 48.9508 48.1561 49.4817 47.002L50.5049 44.7776C50.616 44.5362 50.7634 44.3156 50.9375 44.1207L60.1778 60.3427L52.8596 59.9635Z" fill="#0D5255"/>
</g>
<defs>
<clipPath id="clip0">
<rect width="70" height="70" fill="white"/>
</clipPath>
</defs>
</svg>
