<svg width="24" height="24" viewBox="0 0 24 24" fill="none" xmlns="http://www.w3.org/2000/svg">
<path d="M22.9599 6.25173L21.3885 1.53745C21.2816 1.21642 20.9812 0.999908 20.6429 1H3.35715C3.01881 0.999908 2.71841 1.21642 2.61151 1.53745L1.04005 6.25173C1.01584 6.32511 1.0023 6.40158 1 6.47879C1 6.48666 1 6.49214 1 6.50001V7.28574C1.00285 8.51679 1.585 9.67474 2.57142 10.4113C2.57142 10.4176 2.57142 10.4223 2.57142 10.4286V20.6429C2.57142 21.9447 3.62674 23 4.92856 23H19.0714C20.3733 23 21.4286 21.9447 21.4286 20.6429V10.4286C21.4286 10.4223 21.4286 10.4176 21.4286 10.4113C22.415 9.67474 22.9972 8.51679 23 7.28574V6.50001C23 6.49214 23 6.48666 23 6.47879C22.9977 6.40154 22.9842 6.32507 22.9599 6.25173ZM17.5 2.57141H20.0764L21.1245 5.71428H17.5V2.57141ZM12.7857 2.57141H15.9286V5.71428H12.7857V2.57141ZM8.07144 2.57141H11.2143V5.71428H8.07144V2.57141ZM3.92364 2.57141H6.50002V5.71428H2.8755L3.92364 2.57141ZM13.5715 21.4285H10.4286V15.1428H13.5715V21.4285ZM19.8572 20.6429C19.8572 21.0768 19.5054 21.4286 19.0714 21.4286H15.1429V14.3572C15.1429 13.9232 14.7911 13.5714 14.3571 13.5714H9.64285C9.2089 13.5714 8.85712 13.9232 8.85712 14.3572V21.4286H4.92856C4.49461 21.4286 4.14283 21.0768 4.14283 20.6429V11.1357C5.24549 11.3621 6.39211 11.0989 7.28571 10.4144C8.6883 11.4446 10.5974 11.4446 12 10.4144C13.4026 11.4446 15.3117 11.4446 16.7143 10.4144C17.6079 11.099 18.7545 11.3621 19.8572 11.1357V20.6429ZM19.0714 9.64284C18.392 9.64242 17.7467 9.34437 17.3059 8.82727C17.0204 8.50054 16.524 8.46712 16.1973 8.75265C16.1708 8.7758 16.1458 8.80076 16.1227 8.82727C15.249 9.80236 13.7504 9.88453 12.7753 9.01092C12.7108 8.9531 12.6495 8.89182 12.5916 8.82727C12.2841 8.50054 11.77 8.48489 11.4432 8.79242C11.4312 8.8037 11.4196 8.8153 11.4084 8.82727C10.5347 9.80236 9.03607 9.88453 8.06099 9.01092C7.99644 8.9531 7.93517 8.89182 7.87734 8.82727C7.56985 8.50054 7.05566 8.48489 6.72892 8.79242C6.71695 8.8037 6.70531 8.8153 6.69407 8.82727C6.25326 9.34437 5.60808 9.64242 4.92856 9.64284C3.62674 9.64284 2.57142 8.58751 2.57142 7.28569H21.4286C21.4286 8.58751 20.3733 9.64284 19.0714 9.64284Z" fill="#FAFAFA"/>
</svg>
